<?xml version="1.0"?>
<svg xmlns="http://www.w3.org/2000/svg" xmlns:xlink="http://www.w3.org/1999/xlink" xmlns:svgjs="http://svgjs.com/svgjs" version="1.1" width="512" height="512" x="0" y="0" viewBox="0 0 512 512" style="enable-background:new 0 0 512 512" xml:space="preserve" class=""><g><g xmlns="http://www.w3.org/2000/svg"><path d="m203.405 319.81v-15.146c0-4.142-3.358-7.5-7.5-7.5s-7.5 3.358-7.5 7.5v18.883c0 2.402 1.151 4.66 3.096 6.071 23.967 17.389 38.275 45.416 38.275 74.97 0 50.956-41.336 92.412-92.146 92.412s-92.146-41.456-92.146-92.412c0-29.554 14.309-57.58 38.277-74.971 1.944-1.411 3.095-3.668 3.095-6.07v-129.979c0-4.142-3.358-7.5-7.5-7.5s-7.5 3.358-7.5 7.5v126.242c-25.975 20.324-41.372 51.729-41.372 84.779 0 59.226 48.066 107.411 107.147 107.411 59.08 0 107.146-48.185 107.146-107.412-.001-33.05-15.397-64.455-41.372-84.778z" fill="#e6cc7f" data-original="#000000" style="" class=""/><path d="m79.356 171.068c4.142 0 7.5-3.358 7.5-7.5v-97.206c0-27.741 21.454-50.286 48.841-51.325.646-.024 1.292-.037 1.934-.037 27.997 0 50.774 22.847 50.774 50.93v208.734c0 4.142 3.358 7.5 7.5 7.5s7.5-3.358 7.5-7.5v-208.734c0-37.186-30.914-67.299-68.277-65.882-35.479 1.347-63.272 30.476-63.272 66.314v97.206c0 4.142 3.358 7.5 7.5 7.5z" fill="#e6cc7f" data-original="#000000" style="" class=""/><path d="m154.97 47.848c-4.948-4.763-11.452-7.245-18.301-6.982-13.5.512-24.075 11.712-24.075 25.497v265.44c0 6.331-3.371 12.27-8.796 15.498-20.093 11.956-32.576 33.907-32.576 57.288 0 36.704 29.791 66.566 66.408 66.566s66.408-29.861 66.408-66.566c0-23.38-12.482-45.332-32.575-57.288-5.426-3.229-8.796-9.167-8.796-15.498v-36.003h5.113c4.142 0 7.5-3.358 7.5-7.5s-3.358-7.5-7.5-7.5h-5.113v-25.415h5.113c4.142 0 7.5-3.358 7.5-7.5s-3.358-7.5-7.5-7.5h-5.113v-25.414h5.113c4.142 0 7.5-3.358 7.5-7.5s-3.358-7.5-7.5-7.5h-5.113v-25.415h5.113c4.142 0 7.5-3.358 7.5-7.5s-3.358-7.5-7.5-7.5h-5.113v-25.414h5.113c4.142 0 7.5-3.358 7.5-7.5s-3.358-7.5-7.5-7.5h-5.113v-25.415h5.113c4.142 0 7.5-3.358 7.5-7.5s-3.358-7.5-7.5-7.5h-5.113v-12.797c0-6.882-2.733-13.303-7.697-18.082zm-17.732 8.007c.13-.005.261-.008.391-.008 2.599 0 5.049.988 6.938 2.807 2 1.925 3.101 4.509 3.101 7.276v12.797h-20.073v-12.365c-.001-5.592 4.325-10.305 9.643-10.507zm26.555 304.336c15.572 9.266 25.245 26.278 25.245 44.397 0 28.433-23.062 51.566-51.408 51.566s-51.408-23.132-51.408-51.566c0-18.119 9.674-35.131 25.246-44.397 9.947-5.919 16.126-16.797 16.126-28.389v-238.075h20.073v238.075c0 11.593 6.179 22.471 16.126 28.389z" fill="#e6cc7f" data-original="#000000" style="" class=""/><path d="m408.789 122.434c-11.919-12.459-27.977-19.531-45.215-19.913-17.217-.39-33.593 5.971-46.052 17.89s-19.532 27.977-19.914 45.215 5.972 33.593 17.891 46.053c11.919 12.459 27.977 19.531 45.215 19.914.49.011.979.016 1.468.016 16.697 0 32.479-6.327 44.584-17.907 12.459-11.919 19.531-27.977 19.913-45.215s-5.971-33.594-17.89-46.053zm-12.392 80.428c-9.564 9.149-22.108 14.02-35.351 13.733-13.232-.293-25.559-5.722-34.708-15.286s-14.026-22.119-13.733-35.351 5.722-25.559 15.286-34.708c9.293-8.89 21.407-13.746 34.225-13.746.374 0 .751.004 1.127.012 13.232.293 25.559 5.722 34.708 15.286s14.026 22.119 13.733 35.351c-.294 13.234-5.723 25.56-15.287 34.709z" fill="#e6cc7f" data-original="#000000" style="" class=""/><path d="m362.144 87.782c4.142 0 7.5-3.358 7.5-7.5v-25.098c0-4.142-3.358-7.5-7.5-7.5s-7.5 3.358-7.5 7.5v25.098c0 4.142 3.358 7.5 7.5 7.5z" fill="#e6cc7f" data-original="#000000" style="" class=""/><path d="m423.503 113.197c1.919 0 3.839-.732 5.303-2.197l17.747-17.747c2.929-2.929 2.929-7.678 0-10.606-2.929-2.929-7.678-2.929-10.606 0l-17.747 17.747c-2.929 2.929-2.929 7.678 0 10.606 1.464 1.465 3.383 2.197 5.303 2.197z" fill="#e6cc7f" data-original="#000000" style="" class=""/><path d="m474.016 159.556h-25.098c-4.142 0-7.5 3.358-7.5 7.5s3.358 7.5 7.5 7.5h25.098c4.142 0 7.5-3.358 7.5-7.5s-3.358-7.5-7.5-7.5z" fill="#e6cc7f" data-original="#000000" style="" class=""/><path d="m428.806 223.112c-2.929-2.929-7.678-2.929-10.606 0-2.929 2.929-2.929 7.677 0 10.606l17.747 17.747c1.464 1.465 3.384 2.197 5.303 2.197s3.839-.732 5.303-2.197c2.929-2.929 2.929-7.677 0-10.606z" fill="#e6cc7f" data-original="#000000" style="" class=""/><path d="m362.144 246.331c-4.142 0-7.5 3.358-7.5 7.5v25.098c0 4.142 3.358 7.5 7.5 7.5s7.5-3.358 7.5-7.5v-25.098c0-4.142-3.358-7.5-7.5-7.5z" fill="#e6cc7f" data-original="#000000" style="" class=""/><path d="m295.481 223.112-17.747 17.747c-2.929 2.929-2.929 7.677 0 10.606 1.464 1.465 3.384 2.197 5.303 2.197s3.839-.732 5.303-2.197l17.747-17.747c2.929-2.929 2.929-7.677 0-10.606-2.928-2.929-7.677-2.929-10.606 0z" fill="#e6cc7f" data-original="#000000" style="" class=""/><path d="m282.869 167.056c0-4.142-3.358-7.5-7.5-7.5h-25.098c-4.142 0-7.5 3.358-7.5 7.5s3.358 7.5 7.5 7.5h25.098c4.142 0 7.5-3.358 7.5-7.5z" fill="#e6cc7f" data-original="#000000" style="" class=""/><path d="m295.481 111.001c1.464 1.465 3.384 2.197 5.303 2.197s3.839-.732 5.303-2.197c2.929-2.929 2.929-7.677 0-10.606l-17.747-17.747c-2.928-2.929-7.677-2.929-10.606 0s-2.929 7.677 0 10.606z" fill="#e6cc7f" data-original="#000000" style="" class=""/></g></g></svg>
