<?xml version="1.0"?>
<svg xmlns="http://www.w3.org/2000/svg" xmlns:xlink="http://www.w3.org/1999/xlink" xmlns:svgjs="http://svgjs.com/svgjs" version="1.1" width="512" height="512" x="0" y="0" viewBox="0 0 508.007 508.007" style="enable-background:new 0 0 512 512" xml:space="preserve"><g>
<g xmlns="http://www.w3.org/2000/svg">
	<g>
		<path d="M173.608,25.753c-53.9,0-97.8,43.9-97.8,97.8c0,53.9,43.9,97.8,97.8,97.8c53.9,0,97.8-43.9,97.8-97.8    S227.508,25.753,173.608,25.753z M173.608,204.953c-45,0-81.5-36.6-81.5-81.5c0-44.9,36.6-81.5,81.5-81.5    c45,0,81.5,36.6,81.5,81.5C255.108,168.353,218.508,204.953,173.608,204.953z" fill="#e6cc7f" data-original="#000000" style=""/>
	</g>
</g>
<g xmlns="http://www.w3.org/2000/svg">
	<g>
		<path d="M373.908,66.353c-40.5,0-73.4,32.9-73.4,73.4s32.9,73.4,73.4,73.4s73.4-32.9,73.4-73.4S414.408,66.353,373.908,66.353z     M373.908,196.953c-31.5,0-57.1-25.6-57.1-57.1s25.6-57.1,57.1-57.1s57.1,25.6,57.1,57.1    C431.008,171.353,405.408,196.953,373.908,196.953z" fill="#e6cc7f" data-original="#000000" style=""/>
	</g>
</g>
<g xmlns="http://www.w3.org/2000/svg">
	<g>
		<path d="M505.208,320.753c-7.4-44.6-35.1-82.2-82.3-101.9c0,0-20.9,15.8-49,15.3c-30.7-0.6-49-15.3-49-15.3s-22.8,8.5-41.2,26.2    c-17-15.1-45.7-27.4-45.7-27.4s-26.3,20-64.5,19.7c-40.1-0.3-64.3-19.7-64.3-19.7s-86.7,29.8-105,130.9c0,0-19.6,53.6,25.8,133.7    h287.3c0,0,20.4-35.5,24-57.1h142.9C519.308,371.953,505.208,320.753,505.208,320.753z M307.208,465.953h-267.1    c-34.9-66.3-19.8-114.7-19.8-114.7c8.5-50.7,41.1-93.5,87.7-115.2c40,23.5,91.3,23.5,131.3,0c46.6,21.7,79.2,64.5,87.7,115.2    C326.908,351.253,341.408,410.853,307.208,465.953z M474.708,408.853h-130.1c5-28.8-1.6-60.3-1.6-60.3    c-5.9-35.6-22.7-67.7-47.3-92.5c8.4-7.6,17.7-13.9,27.9-18.8c30.7,17.6,69.8,17.6,100.5,0c34.5,16.5,58.7,48.4,65,86.2    C489.108,323.453,501.008,363.853,474.708,408.853z" fill="#e6cc7f" data-original="#000000" style=""/>
	</g>
</g>
<g xmlns="http://www.w3.org/2000/svg">
</g>
<g xmlns="http://www.w3.org/2000/svg">
</g>
<g xmlns="http://www.w3.org/2000/svg">
</g>
<g xmlns="http://www.w3.org/2000/svg">
</g>
<g xmlns="http://www.w3.org/2000/svg">
</g>
<g xmlns="http://www.w3.org/2000/svg">
</g>
<g xmlns="http://www.w3.org/2000/svg">
</g>
<g xmlns="http://www.w3.org/2000/svg">
</g>
<g xmlns="http://www.w3.org/2000/svg">
</g>
<g xmlns="http://www.w3.org/2000/svg">
</g>
<g xmlns="http://www.w3.org/2000/svg">
</g>
<g xmlns="http://www.w3.org/2000/svg">
</g>
<g xmlns="http://www.w3.org/2000/svg">
</g>
<g xmlns="http://www.w3.org/2000/svg">
</g>
<g xmlns="http://www.w3.org/2000/svg">
</g>
</g></svg>
